<svg xmlns="http://www.w3.org/2000/svg" width="448.497" height="344.682" viewBox="0 0 118.665 91.197"><path d="M68.827 17.073l4.203.037-.076 17.526-4.187-.005zm11.18-.297c2.614-1.571 2.785-1.503 4.989-3.985l-22.982.058v56.094l6.462-4.78V39.358h4.816v21.168l6.718-4.07zm-33.773 20.4c2.353 1.463 2.293 1.504 4.27 3.152L50.49 58.72c-1.83-.997-2.345-1.774-4.254-2.753V41.739zm.049-20.093l4.155.024c.015 3.97-.022 8.017-.006 12.002.022 5.217-.457 5.379-4.202 7.257zm-12.011-4.22c2.256 2.441 2.326 2.305 4.985 3.916l.012 39.842 17.911 12.23v-28.23l-1.744-1.76-2.027-2.167 2.027-2.166 1.744-1.66V12.965z" fill="#c0973e" fill-rule="evenodd"/><path d="M33.098 3.37h18.914V1.826H33.037V0H85.61v1.827H66.662v1.542h18.966v5.595h-52.53zm22.305 0h7.739V1.826h-7.739zm-11.182.525c.892 0 1.62.73 1.62 1.621v1.301c0 .892-.728 1.622-1.62 1.622-.89 0-1.62-.73-1.62-1.622V5.516c0-.892.73-1.621 1.62-1.621zm5.977 0c.89 0 1.62.73 1.62 1.621v1.301c0 .892-.73 1.622-1.62 1.622-.891 0-1.62-.73-1.62-1.622V5.516c0-.892.729-1.621 1.62-1.621zm5.976 0c.891 0 1.62.73 1.62 1.621v1.301c0 .892-.729 1.622-1.62 1.622-.89 0-1.62-.73-1.62-1.622V5.516c0-.892.73-1.621 1.62-1.621zm5.977 0c.89 0 1.62.73 1.62 1.621v1.301c0 .892-.73 1.622-1.62 1.622-.891 0-1.62-.73-1.62-1.622V5.516c0-.892.729-1.621 1.62-1.621zm5.976 0c.891 0 1.62.73 1.62 1.621v1.301c0 .892-.729 1.622-1.62 1.622-.891 0-1.62-.73-1.62-1.622V5.516c0-.892.729-1.621 1.62-1.621zm5.976 0c.892 0 1.62.73 1.62 1.621v1.301c0 .892-.728 1.622-1.62 1.622-.89 0-1.62-.73-1.62-1.622V5.516c0-.892.73-1.621 1.62-1.621m-41.019 5.61h52.508l-.602 2.292H34.269z" fill="#2b2b2a" fill-rule="evenodd"/><g fill="#2b2b2a"><path d="M108.3 80.82c.605 0 1.316-.052 1.687-.2.16-.064.202-.106.244-.266.095-.307.202-1.093.202-1.198 0-.075-.042-.16-.106-.16-.074 0-.095.043-.117.18-.032.17-.159.425-.318.605-.371.414-.828.478-1.655.478-1.252 0-2.907-1.019-2.907-3.162 0-.88.17-1.75.86-2.344.424-.36.944-.51 1.76-.51.86 0 1.486.223 1.804.531.233.234.35.552.36.838 0 .117.022.191.096.191.085 0 .117-.095.127-.223.01-.18.01-.679.032-.975.021-.319.043-.425.043-.5 0-.052-.032-.095-.138-.105-.276-.032-.584-.096-.934-.149a9.602 9.602 0 00-1.358-.095c-1.39 0-2.28.36-2.96.954-.89.796-1.092 1.857-1.092 2.472 0 .87.244 1.889 1.167 2.663.849.71 1.93.976 3.204.976m-8.636-.54c.18.423.255.54.382.54.128 0 .213-.138.446-.658.212-.456.647-1.443 1.241-2.758.51-1.103.753-1.591 1.125-2.44.244-.573.37-.71.488-.796.159-.116.36-.106.456-.106.095 0 .148-.031.148-.095s-.074-.085-.19-.085c-.287 0-.722.021-.881.021-.117 0-.53-.02-.997-.02-.18 0-.266.02-.266.084 0 .063.075.095.16.095.116 0 .265.01.371.043.085.032.127.063.127.16 0 .073-.042.211-.085.328-.222.594-1.421 3.5-1.824 4.434h-.032l-1.57-4.042c-.127-.318-.213-.562-.213-.679 0-.084.032-.138.096-.18.074-.053.212-.064.36-.064.085 0 .149-.031.149-.095s-.106-.085-.222-.085c-.467 0-.956.021-1.188.021-.33 0-.86-.02-1.359-.02-.137 0-.233.01-.233.084 0 .053.021.095.106.095.075 0 .223 0 .36.032.34.085.478.17.69.669zm-6.078-4.69c.01-.032.021-.085.053-.085.02 0 .031.053.042.085 1.218 3.17.664 1.72 1.857 4.72.042.107-.022.192-.085.202-.095.01-.117.043-.117.096 0 .063.106.063.276.074.785.021 1.464.021 1.793.021.35 0 .403-.021.403-.095 0-.064-.042-.095-.127-.095a2.252 2.252 0 01-.35-.033c-.17-.042-.435-.157-.796-.97-.594-1.363-2.154-5.055-2.376-5.554-.096-.201-.138-.286-.276-.286-.096 0-.17.106-.276.36l-2.44 5.676c-.19.456-.35.732-.774.796-.085 0-.191.01-.276.01-.074 0-.106.043-.106.096 0 .074.053.095.17.095.488 0 .986-.032 1.082-.032.297 0 .732.032 1.04.032.095 0 .148-.021.148-.095 0-.053-.021-.095-.138-.095h-.138c-.286 0-.371-.096-.371-.255 0-.106.042-.33.138-.552.84-2.038.672-1.657 1.644-4.116m-8.932 4.084c-.191.18-.7.53-1.39.53-.934 0-1.697-.625-1.697-1.75.159-.36-.032-.87.604-1.336.149.222.658.806.892 1.06.233.255 1.071 1.04 1.59 1.496zm3.532.944c0-.074-.042-.085-.127-.085-.18 0-.679-.148-.965-.318-.244-.148-.616-.424-1.22-.923.509-.604.848-1.4.848-2.09 0-.106-.138-.158-.307-.18-.51-.053-.87-.063-1.083-.063-.074 0-.148.01-.148.084 0 .053.064.075.117.075.138 0 .318.053.435.159.127.116.148.254.148.392 0 .552-.244 1.061-.424 1.316-.17-.149-1.22-1.167-1.528-1.517-.721-.807-1.443-1.422-1.443-2.27 0-.764.489-.976.87-.976.51 0 .817.127.998.339.201.233.265.52.265.753 0 .138.01.17.064.17.052 0 .084-.01.106-.148.02-.138.095-.86.095-1.157 0-.106 0-.17-.148-.233a3.171 3.171 0 00-1.093-.191c-1.57 0-2.238.944-2.228 1.655.01.403.085.742.467 1.251-.541.266-1.443 1.125-1.443 2.175 0 .785.584 1.984 2.514 1.984 1.231 0 1.867-.477 2.164-.753.775.594 1.072.636 2.1.636h.69c.202 0 .276-.031.276-.085m-14.236-2.535c0 .87 0 1.591-.043 1.963-.031.265-.084.392-.276.434-.084.022-.19.032-.328.032-.117 0-.149.053-.149.096 0 .063.064.095.18.095.372 0 1.008-.032 1.22-.032.255 0 .892.032 1.507.032.106 0 .18-.032.18-.095 0-.043-.042-.095-.148-.095-.138 0-.35-.011-.478-.033-.275-.042-.34-.18-.371-.424-.042-.382-.042-1.103-.042-1.973v-1.591c0-1.369 0-1.623.02-1.91.022-.318.096-.445.351-.488.106-.02.18-.032.276-.032.095 0 .148-.02.148-.106 0-.053-.074-.074-.19-.074-.361 0-.966.021-1.2.021-.265 0-.901-.02-1.251-.02-.149 0-.223.02-.223.073 0 .085.053.106.148.106.117 0 .234.01.34.043.202.063.297.17.318.477.01.287.01.541.01 1.91zm-4.127 2.737c.605 0 1.316-.053 1.687-.202.16-.063.201-.105.244-.265.095-.307.201-1.093.201-1.198 0-.075-.042-.16-.105-.16-.075 0-.096.043-.117.18-.032.17-.16.425-.318.605-.372.414-.828.478-1.655.478-1.252 0-2.907-1.019-2.907-3.162 0-.88.17-1.75.859-2.344.425-.36.944-.51 1.761-.51.86 0 1.485.223 1.803.531.234.234.35.552.361.838 0 .117.021.191.096.191.084 0 .116-.095.127-.223.01-.18.01-.679.032-.975.021-.319.042-.425.042-.5 0-.052-.032-.095-.138-.105-.275-.032-.583-.096-.933-.149a9.605 9.605 0 00-1.358-.095c-1.39 0-2.28.36-2.96.954-.891.796-1.093 1.857-1.093 2.472 0 .87.245 1.889 1.167 2.663.849.71 1.931.976 3.204.976m-5.346-1.665c0-.075-.043-.16-.106-.16-.075 0-.096.043-.117.18-.032.17-.16.425-.318.605-.372.414-.828.478-1.655.478-1.252 0-2.907-1.019-2.907-3.162 0-.88.17-1.75.86-2.344.424-.36.943-.51 1.76-.51.86 0 1.485.223 1.804.531.233.234.35.552.36.838 0 .117.022.191.096.191.085 0 .117-.095.127-.223.01-.18.01-.679.032-.975.021-.319.042-.425.042-.5 0-.052-.032-.095-.137-.105-.276-.032-.584-.096-.934-.149a9.605 9.605 0 00-1.358-.095c-1.39 0-2.28.36-2.96.954-.89.796-1.092 1.857-1.092 2.472 0 .87.244 1.889 1.167 2.663.668.562 1.485.838 2.418.933l-.848.637c-.138.106-.17.127-.17.16 0 .031.085.063.233.084.711.106.839.488.839.774 0 .446-.542.711-.892.711-.148 0-.276.043-.276.138 0 .074.085.106.18.106 1.518 0 1.953-.71 1.953-1.135 0-.477-.478-.774-1.252-.849l.796-.583h.222c.605 0 1.316-.053 1.687-.202.16-.063.202-.105.244-.265.095-.307.202-1.093.202-1.198m-19.18-6.906c0 .084.233.296.392.424a1.803 1.803 0 002.196.02c.244-.158.668-.625.668-.784 0-.053-.031-.095-.084-.095-.075 0-.138.137-.467.392a1.707 1.707 0 01-.934.297c-.276 0-.604-.032-.976-.467-.095-.106-.159-.244-.222-.244-.032 0-.064.01-.138.074l-.35.276c-.032.022-.085.043-.085.106m4.381 6.853c0-.445 0-.806.01-1.082.011-.318.107-.445.361-.488.106-.02.18-.031.255-.031.063 0 .116-.043.116-.096 0-.074-.063-.085-.19-.085-.308 0-.796.021-1.093.021-.276 0-.944-.02-1.432-.02-.127 0-.202.01-.202.084 0 .053.064.095.149.095.127 0 .286.011.36.032.298.085.393.18.404.488.01.276.01.615.01 1.061v.828c0 .159-.042.254-.18.318-.223.095-.414.095-.658.095-1.994 0-3.246-1.41-3.246-3.352 0-1.103.34-1.771.86-2.196.646-.52 1.294-.53 1.803-.53 1.05 0 1.75.403 2.026.69.244.254.297.54.318.742.01.074.032.116.096.116.074 0 .127-.063.127-.2 0-1.136.063-1.38.063-1.486 0-.064-.02-.096-.127-.106a7.382 7.382 0 01-.742-.096 10.667 10.667 0 00-1.655-.148c-.785 0-1.623.064-2.514.583-.86.499-1.634 1.506-1.634 2.95 0 2.492 2.026 3.532 4.318 3.532.731 0 1.655-.096 2.28-.403.117-.064.117-.074.117-.319zm-18.342-2.61c0-1.368 0-1.622.01-1.909.022-.318.096-.445.35-.488.117-.02.17-.032.266-.032.074 0 .127-.031.127-.095s-.063-.085-.201-.085c-.308 0-.976.021-1.199.021-.223 0-.817-.02-1.305-.02-.137 0-.212.02-.212.084 0 .063.064.095.16.095.137 0 .296.01.37.032.298.085.382.18.404.488.01.287.01.541.01 1.91v1.59c0 .828 0 1.54-.042 1.92-.032.266-.085.436-.276.478a1.377 1.377 0 01-.329.032c-.117 0-.148.053-.148.096 0 .063.063.095.18.095.371 0 .965-.032 1.177-.032.234 0 .902.032 1.422.032.106 0 .18-.032.18-.095 0-.043-.053-.095-.127-.095-.117 0-.329-.011-.456-.033-.233-.042-.318-.212-.34-.466-.02-.393-.02-1.104-.02-1.931v-.817h.042l.095.127c.202.276 1.995 2.356 2.397 2.705.404.35.711.542 1.21.584.202.021.371.021.647.021h.817c.17 0 .223-.031.223-.095 0-.053-.053-.095-.128-.095-.106 0-.297 0-.572-.117-.5-.202-.86-.594-1.273-.966-.361-.34-2.196-2.249-2.525-2.673.286-.329 1.676-1.644 1.973-1.92.392-.372.69-.562.987-.669.169-.063.403-.106.54-.106.085 0 .138-.031.138-.095s-.063-.085-.159-.085c-.286 0-.806.021-1.092.021-.255 0-.764-.02-.966-.02-.095 0-.148.02-.148.084 0 .053.042.074.127.095.085.021.127.085.127.18 0 .16-.201.372-.467.669-.275.308-1.633 1.644-1.951 1.984h-.043zm-7.808-3.437c.308 0 .51-.233.51-.53 0-.286-.223-.456-.499-.456a.483.483 0 00-.488.488c0 .223.138.498.477.498m2.239 0c.307 0 .509-.233.509-.53 0-.297-.223-.467-.499-.467-.34 0-.488.287-.488.499 0 .223.138.498.478.498m-4.116 4.764c0 1.305.37 1.973.848 2.387.68.594 1.645.615 2.132.615.605 0 1.316-.096 1.974-.647.785-.647.89-1.708.89-2.716v-.965c0-1.369.011-1.623.022-1.91.021-.318.085-.445.34-.488.116-.02.17-.032.275-.032.107 0 .16-.031.16-.095s-.064-.085-.191-.085c-.361 0-.987.021-1.093.021-.01 0-.637-.02-1.114-.02-.127 0-.191.02-.191.084 0 .063.053.095.159.095.106 0 .265.01.34.032.297.085.371.18.392.488.01.287.021.541.021 1.91v1.135c0 .923-.02 1.708-.54 2.196-.372.36-.85.477-1.252.477-.319 0-.764-.032-1.178-.36-.456-.361-.71-.87-.71-2.186v-1.262c0-1.369 0-1.623.02-1.91.022-.318.096-.445.34-.488.116-.02.17-.032.276-.032.095 0 .148-.031.148-.095s-.063-.085-.201-.085c-.34 0-.966.021-1.199.021-.276 0-.902-.02-1.4-.02-.138 0-.202.02-.202.084 0 .063.053.095.16.095.126 0 .286.01.36.032.297.085.382.17.403.488.021.287.01.541.01 1.91z"/><path d="M16.804 79.102c0 .149 0 .52-.032.902-.021.265-.095.435-.287.477a1.437 1.437 0 01-.328.032c-.106 0-.149.053-.149.096 0 .074.074.095.202.095.35 0 .976-.032 1.209-.032.255 0 .88.032 1.464.032.127 0 .202-.032.202-.095 0-.043-.054-.095-.16-.095a3.58 3.58 0 01-.466-.033c-.276-.042-.361-.212-.382-.477-.022-.382-.022-.753-.022-.902v-.721c0-.297-.02-.573.117-.902.17-.382 1.506-2.525 1.814-2.885.202-.244.287-.329.488-.425.138-.063.308-.106.403-.106.106 0 .18-.042.18-.106 0-.053-.063-.074-.169-.074-.18 0-.796.021-.997.021-.276 0-.605-.02-.913-.02-.106 0-.159.02-.159.084 0 .074.085.085.17.106.16.032.201.117.201.202 0 .116-.042.275-.137.477-.138.276-1.273 2.207-1.39 2.419-.159-.255-1.379-2.366-1.549-2.642-.074-.127-.116-.233-.116-.307 0-.075.052-.117.127-.138.148-.043.212-.043.212-.117 0-.064-.053-.085-.138-.085-.424 0-.86.021-1.061.021-.308 0-1.008-.02-1.167-.02-.116 0-.18.02-.18.084 0 .063.064.095.138.095.116 0 .276.053.392.117.18.095.372.308.605.637.329.477 1.602 2.46 1.665 2.598.128.266.213.457.213.945zm-7.596-6.047c.308 0 .51-.233.51-.53 0-.286-.224-.456-.5-.456a.483.483 0 00-.487.488c0 .223.137.498.477.498m2.238 0c.308 0 .51-.233.51-.53 0-.297-.223-.467-.499-.467-.34 0-.488.287-.488.499 0 .223.138.498.477.498"/><path d="M7.33 77.819c0 1.305.372 1.973.85 2.387.678.594 1.643.615 2.131.615.605 0 1.316-.096 1.973-.647.786-.647.891-1.708.891-2.716v-.965c0-1.369.011-1.623.022-1.91.02-.318.085-.445.34-.488.116-.02.169-.032.275-.032.106 0 .16-.031.16-.095s-.064-.085-.192-.085c-.36 0-.986.021-1.092.021-.011 0-.637-.02-1.114-.02-.127 0-.191.02-.191.084 0 .063.053.095.159.095.106 0 .265.01.34.032.297.085.37.18.392.488.01.287.02.541.02 1.91v1.135c0 .923-.02 1.708-.54 2.196-.371.36-.849.477-1.252.477-.318 0-.763-.032-1.177-.36-.456-.361-.711-.87-.711-2.186v-1.262c0-1.369 0-1.623.021-1.91.021-.318.096-.445.34-.488.116-.02.17-.032.275-.032.096 0 .15-.031.15-.095s-.064-.085-.203-.085c-.339 0-.965.021-1.198.021-.276 0-.902-.02-1.4-.02-.139 0-.202.02-.202.084 0 .063.053.095.16.095.126 0 .285.01.36.032.297.085.382.17.403.488.02.287.01.541.01 1.91zm-5.176-.573c0-.053.02-.064.053-.064h.403c.36 0 .615.096.806.233.7.478.88 1.189.88 1.603 0 .997-.647 1.272-1.145 1.272-.212 0-.424-.01-.669-.105-.297-.117-.328-.298-.328-.892zm0-2.78c0-.095.02-.137.084-.148.096-.021.276-.021.404-.021.806 0 1.166.753 1.166 1.358 0 .435-.18.764-.424.955-.159.127-.424.158-.732.158-.212 0-.35-.01-.435-.031-.032-.011-.063-.022-.063-.096zm-1.21 3.618c0 .828 0 1.538-.042 1.92-.032.266-.085.435-.276.478a1.377 1.377 0 01-.33.032c-.116 0-.148.052-.148.095 0 .064.064.095.18.095.191 0 .425-.01.648-.02.223 0 .424-.011.53-.011.149 0 .478.01.796.02.318.022.636.033.742.033 1.719 0 2.483-.998 2.483-1.963 0-1.06-.955-1.708-1.719-1.952.53-.34 1.05-.88 1.05-1.58 0-.478-.297-1.348-1.983-1.348-.319 0-.934.021-1.4.021-.18 0-.775-.02-1.263-.02-.138 0-.212.02-.212.084s.063.095.159.095c.138 0 .297.011.371.033.297.084.382.18.403.487.011.287.011.541.011 1.91zm111.08-.265c0 1.305.372 1.973.849 2.387.678.594 1.644.615 2.132.615.605 0 1.316-.096 1.973-.647.785-.647.891-1.708.891-2.716v-.965c0-1.369.01-1.623.021-1.91.022-.318.085-.445.34-.488.117-.02.17-.032.276-.032.106 0 .159-.031.159-.095s-.064-.085-.191-.085c-.36 0-.987.021-1.093.021-.01 0-.636-.02-1.114-.02-.127 0-.19.02-.19.084 0 .063.052.095.158.095.107 0 .266.01.34.032.297.085.371.18.393.488.01.287.02.541.02 1.91v1.135c0 .923-.02 1.708-.54 2.196-.372.36-.849.477-1.252.477-.318 0-.764-.032-1.178-.36-.456-.361-.71-.87-.71-2.186v-1.262c0-1.369 0-1.623.021-1.91.021-.318.095-.445.34-.488.116-.02.169-.032.275-.032.096 0 .149-.031.149-.095s-.064-.085-.202-.085c-.34 0-.965.021-1.198.021-.276 0-.902-.02-1.4-.02-.139 0-.202.02-.202.084 0 .063.053.095.159.095.127 0 .286.01.36.032.297.085.382.17.403.488.022.287.011.541.011 1.91zM53.752 75.59c.011-.032.022-.085.053-.085.022 0 .032.053.043.085 1.218 3.17.663 1.72 1.856 4.72.043.107-.02.192-.084.202-.096.01-.117.043-.117.096 0 .063.106.063.276.074.785.021 1.464.021 1.792.021.35 0 .404-.021.404-.095 0-.064-.043-.095-.128-.095-.106 0-.212-.011-.35-.033-.17-.042-.435-.157-.795-.97-.594-1.363-2.154-5.055-2.377-5.554-.095-.201-.137-.286-.275-.286-.096 0-.17.106-.276.36l-2.44 5.676c-.191.456-.35.732-.775.796-.084 0-.19.01-.275.01-.075 0-.107.043-.107.096 0 .074.054.095.17.095.488 0 .987-.032 1.082-.032.297 0 .732.032 1.04.032.095 0 .148-.021.148-.095 0-.053-.02-.095-.137-.095h-.138c-.287 0-.372-.096-.372-.255 0-.106.043-.33.138-.552.84-2.038.672-1.657 1.644-4.116m-13.844 0c.01-.032.021-.085.053-.085.022 0 .032.053.043.085 1.218 3.17.663 1.72 1.856 4.72.043.107-.02.192-.084.202-.096.01-.117.043-.117.096 0 .063.105.063.276.074.785.021 1.464.021 1.792.021.35 0 .403-.021.403-.095 0-.064-.042-.095-.127-.095a2.252 2.252 0 01-.35-.033c-.17-.042-.435-.157-.796-.97-.594-1.363-2.153-5.055-2.376-5.554-.095-.201-.138-.286-.276-.286-.095 0-.17.106-.275.36l-2.44 5.676c-.191.456-.35.732-.775.796-.084 0-.19.01-.276.01-.074 0-.106.043-.106.096 0 .074.053.095.17.095.488 0 .987-.032 1.082-.032.297 0 .732.032 1.04.032.095 0 .148-.021.148-.095 0-.053-.02-.095-.138-.095h-.137c-.287 0-.372-.096-.372-.255 0-.106.043-.33.138-.552.84-2.038.672-1.657 1.644-4.116"/><path d="M40.002 78.353c.44 0 .797.333.797.743s-.357.743-.797.743c-.441 0-.798-.332-.798-.743 0-.41.357-.743.798-.743m13.834 0c.44 0 .798.333.798.743s-.357.743-.798.743c-.44 0-.798-.332-.798-.743 0-.41.358-.743.798-.743m39.825 0c.44 0 .798.333.798.743s-.358.743-.798.743c-.44 0-.798-.332-.798-.743 0-.41.357-.743.798-.743m23.852 10.35l-5.133 1.544c-.726 0-.39-.186-.757-2.628l7.042-.145c-.114.003 0 0-1.152 1.23m-116.36 0l5.132 1.543c.726 0 .39-.186.757-2.628L0 87.474c.115.003 0 0 1.153 1.23" fill-rule="evenodd"/><path d="M10.893 89.278c.034 0 .06.008.077.05l.58 1.46c.034.085-.017.153-.068.162-.077.008-.094.034-.094.076 0 .052.085.052.222.06.63.017 1.177.017 1.441.017.282 0 .324-.017.324-.077 0-.05-.034-.076-.102-.076-.085 0-.17-.009-.281-.026-.137-.034-.35-.126-.64-.78-.478-1.097-1.732-4.065-1.911-4.466-.077-.162-.111-.23-.222-.23-.077 0-.136.085-.222.29L8.035 90.3c-.153.367-.281.589-.622.64-.069 0-.154.009-.222.009-.06 0-.086.034-.086.076 0 .06.043.077.137.077.392 0 .793-.025.87-.025.239 0 .589.025.836.025.077 0 .12-.017.12-.077 0-.042-.018-.076-.111-.076h-.111c-.23 0-.299-.077-.299-.205 0-.085.034-.265.111-.444l.4-.972c.018-.043.026-.051.07-.051zm-1.612-.401c-.026 0-.043-.017-.026-.051l.725-1.835c.009-.025.017-.068.043-.068.017 0 .026.043.034.068l.708 1.843c.009.026 0 .043-.034.043zm6.887 1.885c.145.341.204.435.307.435.102 0 .17-.111.358-.53.17-.366.52-1.159.998-2.217.41-.887.606-1.28.904-1.962.197-.46.3-.571.393-.64.128-.094.29-.085.367-.085.076 0 .12-.026.12-.077 0-.051-.06-.068-.154-.068-.23 0-.58.017-.708.017-.094 0-.427-.017-.802-.017-.145 0-.214.017-.214.068 0 .051.06.077.128.077.094 0 .214.009.299.034.068.026.102.051.102.128 0 .06-.034.17-.068.265-.18.477-1.143 2.815-1.467 3.565h-.026l-1.262-3.25c-.103-.256-.171-.452-.171-.546 0-.068.026-.11.077-.145.06-.042.17-.05.29-.05.068 0 .12-.027.12-.078 0-.051-.086-.068-.18-.068-.376 0-.768.017-.955.017-.265 0-.691-.017-1.092-.017-.111 0-.188.009-.188.068 0 .043.017.077.085.077.06 0 .18 0 .29.025.273.069.384.137.555.538zm5.223-1.979c0 1.05.299 1.586.683 1.92.545.477 1.322.494 1.714.494.486 0 1.058-.077 1.587-.52.631-.52.717-1.374.717-2.184v-.776c0-1.101.008-1.306.017-1.536.017-.256.068-.358.273-.393.094-.016.136-.025.221-.025.086 0 .128-.026.128-.077 0-.051-.05-.068-.153-.068-.29 0-.794.017-.879.017-.008 0-.512-.017-.896-.017-.102 0-.153.017-.153.068 0 .051.043.077.128.077s.213.009.273.025c.239.069.298.146.315.393.01.23.018.435.018 1.536v.912c0 .742-.018 1.374-.435 1.766-.3.29-.683.384-1.007.384-.256 0-.614-.026-.947-.29-.367-.29-.572-.7-.572-1.757v-1.015c0-1.101 0-1.306.017-1.536.018-.256.077-.358.273-.393.094-.016.137-.025.222-.025.077 0 .12-.026.12-.077 0-.051-.052-.068-.162-.068-.274 0-.777.017-.964.017-.222 0-.725-.017-1.126-.017-.112 0-.163.017-.163.068 0 .051.043.077.128.077.103 0 .23.009.29.025.24.069.308.137.325.393.017.23.008.435.008 1.536zm8.917-1.066c0-1.101 0-1.306.009-1.536.017-.256.077-.358.282-.393.093-.016.136-.025.213-.025.06 0 .102-.026.102-.077 0-.051-.051-.068-.162-.068-.247 0-.785.017-.964.017-.18 0-.657-.017-1.05-.017-.11 0-.17.017-.17.068 0 .051.051.077.128.077.111 0 .239.009.299.025.239.069.307.146.324.393.008.23.008.435.008 1.536v1.279c0 .665 0 1.237-.034 1.544-.025.213-.068.35-.222.384a1.094 1.094 0 01-.264.026c-.094 0-.12.042-.12.076 0 .052.052.077.145.077.3 0 .777-.025.948-.025.187 0 .725.025 1.143.025.085 0 .145-.025.145-.077 0-.034-.043-.076-.103-.076-.094 0-.264-.009-.366-.026-.188-.034-.257-.17-.274-.375-.017-.316-.017-.888-.017-1.553v-.657h.035l.076.103c.162.221 1.604 1.893 1.928 2.175.325.282.572.435.973.47.162.016.298.016.52.016h.657c.136 0 .179-.025.179-.077 0-.042-.043-.076-.102-.076-.086 0-.24 0-.46-.094-.402-.162-.692-.478-1.025-.776-.29-.274-1.766-1.809-2.03-2.15.23-.265 1.348-1.322 1.587-1.544.316-.299.554-.452.793-.537.137-.052.324-.086.435-.086.068 0 .111-.026.111-.077 0-.051-.051-.068-.128-.068-.23 0-.648.017-.878.017-.205 0-.615-.017-.777-.017-.077 0-.12.017-.12.068 0 .043.035.06.103.077.069.017.103.068.103.145 0 .128-.163.299-.376.537-.222.248-1.313 1.323-1.57 1.596h-.034zm8.167 1.56c.034 0 .06.01.077.052l.58 1.459c.034.085-.017.153-.068.162-.077.008-.094.034-.094.076 0 .052.085.052.221.06.632.017 1.178.017 1.442.017.282 0 .324-.017.324-.077 0-.05-.034-.076-.102-.076-.085 0-.17-.009-.282-.026-.136-.034-.35-.126-.64-.78-.477-1.097-1.731-4.065-1.91-4.466-.077-.162-.111-.23-.222-.23-.077 0-.137.085-.222.29L35.617 90.3c-.153.367-.281.589-.623.64-.068 0-.153.009-.221.009-.06 0-.086.034-.086.076 0 .06.043.077.137.077.392 0 .793-.025.87-.025.239 0 .589.025.836.025.077 0 .12-.017.12-.077 0-.042-.018-.076-.112-.076h-.11c-.23 0-.3-.077-.3-.205 0-.085.035-.265.112-.444l.4-.972c.018-.043.026-.051.07-.051zm-1.612-.4c-.026 0-.043-.017-.026-.051l.725-1.835c.009-.025.017-.068.043-.068.017 0 .025.043.034.068l.708 1.843c.008.026 0 .043-.034.043zm6.656.12c0 .666 0 1.238-.034 1.545-.026.211-.068.348-.222.382-.06.017-.153.026-.264.026-.094 0-.12.042-.12.076 0 .052.051.077.145.077.299 0 .81-.025.981-.025.213 0 .715.025 1.21.025.086 0 .145-.025.145-.077 0-.034-.034-.076-.12-.076-.11 0-.28-.009-.383-.026-.22-.034-.263-.17-.288-.374-.035-.315-.043-.887-.043-1.552v-2.934l.945.018c.673.008.869.23.886.418l.009.076c.008.111.025.145.086.145.043 0 .06-.042.069-.12 0-.19.017-.727.017-.88 0-.112-.009-.154-.06-.154-.026 0-.087.017-.206.034-.111.018-.273.035-.512.035h-3.043c-.247 0-.529-.008-.75-.034-.188-.027-.265-.086-.324-.086-.043 0-.069.042-.086.136-.017.061-.162.762-.162.882 0 .076.017.12.068.12.051 0 .069-.035.086-.095a.842.842 0 01.128-.247c.11-.162.29-.213.725-.222l1.117-.026zm6.708-1.28c0-1.101 0-1.306.017-1.536.017-.256.077-.358.281-.393a1.665 1.665 0 01.29-.025c.094 0 .137-.026.137-.077 0-.051-.051-.068-.162-.068-.29 0-.904.017-1.084.017-.204 0-.682-.017-1.032-.017-.11 0-.162.017-.162.068 0 .051.043.077.128.077.094 0 .188.009.248.025.239.069.307.146.324.393.008.23.008.435.008 1.536v1.279c0 .665 0 1.237-.034 1.544-.025.213-.068.35-.222.384a1.096 1.096 0 01-.264.026c-.094 0-.12.042-.12.076 0 .052.052.077.145.077.154 0 .342-.008.52-.017.18 0 .342-.008.427-.008.307 0 .623.008.998.017.376.017.811.025 1.348.025.393 0 .427-.034.478-.196.06-.213.111-.75.111-.836 0-.085-.017-.162-.068-.162-.06 0-.077.043-.086.111-.017.136-.094.341-.187.435-.188.196-.478.205-.879.205-.58 0-.87-.043-.998-.154-.162-.136-.162-.597-.162-1.527zm5.001 1.279c0 .7 0 1.28-.034 1.578-.025.214-.068.316-.222.35a1.111 1.111 0 01-.264.026c-.094 0-.12.042-.12.076 0 .052.052.077.146.077.298 0 .81-.025.98-.025.205 0 .717.025 1.212.025.085 0 .145-.025.145-.077 0-.034-.034-.076-.12-.076-.11 0-.281-.009-.383-.026-.222-.034-.273-.145-.299-.341-.034-.307-.034-.887-.034-1.587v-1.28c0-1.1 0-1.305.017-1.535.017-.256.077-.358.282-.393a1.05 1.05 0 01.222-.025c.076 0 .119-.017.119-.085 0-.043-.06-.06-.154-.06-.29 0-.776.017-.964.017-.213 0-.725-.017-1.006-.017-.12 0-.18.017-.18.06 0 .068.043.085.12.085.094 0 .188.009.273.034.162.051.239.137.256.384.008.23.008.435.008 1.536zm5.753-1.28c0-1.1 0-1.305.008-1.535.017-.256.077-.358.282-.393.094-.016.136-.025.213-.025.06 0 .103-.026.103-.077 0-.051-.052-.068-.163-.068-.247 0-.784.017-.964.017-.179 0-.656-.017-1.049-.017-.111 0-.17.017-.17.068 0 .051.05.077.128.077.11 0 .238.009.298.025.239.069.307.146.324.393.009.23.009.435.009 1.536v1.279c0 .665 0 1.237-.035 1.544-.025.213-.068.35-.221.384a1.094 1.094 0 01-.265.026c-.094 0-.119.042-.119.076 0 .052.051.077.145.077.299 0 .776-.025.947-.025.188 0 .725.025 1.143.025.085 0 .145-.025.145-.077 0-.034-.043-.076-.102-.076-.094 0-.265-.009-.367-.026-.188-.034-.256-.17-.273-.375-.017-.316-.017-.888-.017-1.553v-.657h.034l.077.103c.162.221 1.603 1.893 1.928 2.175.324.282.571.435.972.47.162.016.299.016.52.016h.657c.137 0 .18-.025.18-.077 0-.042-.043-.076-.103-.076-.085 0-.239 0-.46-.094-.401-.162-.691-.478-1.024-.776-.29-.274-1.766-1.809-2.03-2.15.23-.265 1.347-1.322 1.586-1.544.316-.299.555-.452.793-.537.137-.052.325-.086.436-.086.068 0 .11-.026.11-.077 0-.051-.05-.068-.128-.068-.23 0-.648.017-.878.017-.205 0-.614-.017-.776-.017-.077 0-.12.017-.12.068 0 .043.034.06.103.077.068.017.102.068.102.145 0 .128-.162.299-.375.537-.222.248-1.314 1.323-1.57 1.596h-.034zm8.72 1.28c0 .665 0 1.237-.033 1.544-.026.213-.069.35-.222.384a1.094 1.094 0 01-.265.026c-.094 0-.119.042-.119.076 0 .052.051.077.145.077.154 0 .341-.008.52-.017.18 0 .342-.008.427-.008.12 0 .384.008.64.017.256.017.511.025.597.025 1.382 0 1.996-.802 1.996-1.578 0-.853-.768-1.373-1.382-1.57.427-.273.845-.708.845-1.27 0-.384-.24-1.084-1.596-1.084-.255 0-.75.017-1.126.017-.145 0-.622-.017-1.015-.017-.111 0-.17.017-.17.068 0 .051.05.077.128.077.11 0 .238.009.298.025.239.069.307.146.324.393.009.23.009.435.009 1.536zm.973-2.909c0-.077.017-.11.068-.12.077-.016.222-.016.325-.016.648 0 .938.605.938 1.092 0 .35-.145.614-.341.767-.128.103-.342.128-.589.128-.17 0-.281-.008-.35-.025-.025-.009-.05-.017-.05-.077zm0 2.235c0-.042.017-.05.043-.05h.324c.29 0 .495.076.648.187.563.384.708.955.708 1.288 0 .802-.52 1.024-.92 1.024a1.38 1.38 0 01-.538-.086c-.24-.094-.265-.239-.265-.716zm5.462.46c0 1.05.299 1.587.683 1.92.546.478 1.322.495 1.715.495.486 0 1.057-.077 1.586-.52.632-.52.717-1.374.717-2.184v-.776c0-1.101.008-1.306.017-1.536.017-.256.068-.358.273-.393.094-.016.136-.025.222-.025.085 0 .128-.026.128-.077 0-.051-.051-.068-.154-.068-.29 0-.793.017-.878.017-.009 0-.512-.017-.896-.017-.103 0-.154.017-.154.068 0 .051.043.077.128.077s.213.009.273.025c.24.069.299.146.316.393.008.23.017.435.017 1.536v.912c0 .742-.017 1.374-.435 1.766-.299.29-.683.384-1.007.384-.256 0-.614-.026-.947-.29-.367-.29-.571-.7-.571-1.757v-1.015c0-1.101 0-1.306.017-1.536.017-.256.077-.358.273-.393.094-.016.136-.025.222-.025.076 0 .119-.026.119-.077 0-.051-.051-.068-.162-.068-.273 0-.776.017-.964.017-.222 0-.725-.017-1.126-.017-.111 0-.162.017-.162.068 0 .051.042.077.128.077.102 0 .23.009.29.025.239.069.307.137.324.393.017.23.008.435.008 1.536zm3.31-3.83c.248 0 .41-.187.41-.426s-.18-.375-.401-.375c-.273 0-.392.23-.392.4 0 .18.11.402.383.402zm-1.8 0c.248 0 .41-.187.41-.426 0-.23-.18-.367-.401-.367a.389.389 0 00-.392.393c0 .179.11.4.383.4zm6.427 4.044c0 .665 0 1.237-.035 1.544-.025.213-.068.35-.221.384a1.096 1.096 0 01-.265.026c-.094 0-.12.042-.12.076 0 .052.052.077.146.077.298 0 .776-.025.921-.025.111 0 .734.025 1.169.025.094 0 .153-.025.153-.077 0-.034-.034-.076-.093-.076-.094 0-.256-.009-.367-.026-.23-.034-.265-.17-.29-.384-.034-.307-.043-.87-.043-1.544v-.102c0-.043.026-.06.06-.06l.674.017c.05 0 .093.009.136.051.094.111.41.598.708.99.418.563.7.904 1.024 1.066.196.103.4.145.819.145h.716c.094 0 .146-.017.146-.077 0-.034-.035-.076-.094-.076-.06 0-.103 0-.18-.017-.119-.026-.383-.06-.801-.478-.453-.452-.981-1.11-1.647-1.928.734-.589 1.041-1.066 1.041-1.604 0-.486-.316-.853-.53-.998-.4-.265-.946-.307-1.424-.307-.23 0-.912.017-1.168.017-.154 0-.632-.017-1.024-.017-.11 0-.17.017-.17.068 0 .051.05.077.127.077.111 0 .24.009.299.025.239.069.307.146.324.393.009.23.009.435.009 1.536zm.955-2.875c0-.06.017-.085.068-.102a2.7 2.7 0 01.444-.026c.443 0 1.143.265 1.143 1.289 0 .597-.256.912-.486 1.074-.128.094-.23.12-.53.12-.187 0-.408-.017-.57-.068-.052-.026-.069-.052-.069-.128zm8.405 5.076c1.937 0 3.148-1.305 3.148-2.969 0-1.663-1.177-2.712-3.07-2.712-2.279 0-3.149 1.603-3.149 2.84 0 1.289.888 2.841 3.071 2.841zm.307-.392c-1.415 0-2.269-1.178-2.269-2.67 0-1.792.982-2.235 1.817-2.235 1.212 0 2.176.99 2.176 2.593 0 2.064-1.195 2.312-1.723 2.312zm6.606.392c.401 0 .896-.042 1.254-.298.546-.384.75-.82.75-1.357 0-.657-.306-1.211-1.296-1.757l-.307-.17c-.674-.376-.794-.632-.794-.956 0-.495.487-.777 1.024-.777.486 0 .725.205.836.342.162.187.196.409.196.477 0 .086.026.128.077.128.06 0 .094-.076.094-.23 0-.572.026-.776.026-.87 0-.051-.035-.077-.103-.094a4.444 4.444 0 00-1.066-.12c-1.04 0-1.894.572-1.894 1.46 0 .64.29 1.125 1.177 1.646l.435.256c.666.392.743.708.743 1.024 0 .511-.393.92-1.041.92-.47 0-1.032-.178-1.195-.716a1.362 1.362 0 01-.068-.375c0-.051-.008-.12-.076-.12-.06 0-.094.077-.094.188-.009.12-.043.572-.043.964 0 .162.026.196.145.248.324.145.785.187 1.22.187zm4.771-2.414c0 1.05.299 1.586.683 1.92.546.477 1.322.494 1.714.494.487 0 1.058-.077 1.587-.52.631-.52.717-1.374.717-2.184v-.776c0-1.101.008-1.306.017-1.536.017-.256.068-.358.273-.393.094-.016.136-.025.221-.025.086 0 .128-.026.128-.077 0-.051-.05-.068-.153-.068-.29 0-.793.017-.879.017-.008 0-.512-.017-.896-.017-.102 0-.153.017-.153.068 0 .051.043.077.128.077s.213.009.273.025c.239.069.299.146.316.393.008.23.017.435.017 1.536v.912c0 .742-.017 1.374-.435 1.766-.299.29-.683.384-1.007.384-.256 0-.614-.026-.947-.29-.367-.29-.571-.7-.571-1.757v-1.015c0-1.101 0-1.306.016-1.536.018-.256.077-.358.273-.393.094-.016.137-.025.222-.025.077 0 .12-.026.12-.077 0-.051-.051-.068-.162-.068-.273 0-.777.017-.964.017-.222 0-.725-.017-1.126-.017-.111 0-.162.017-.162.068 0 .051.042.077.128.077.102 0 .23.009.29.025.238.069.307.137.324.393.017.23.008.435.008 1.536z"/></g></svg>